G04 #@! TF.FileFunction,Copper,L1,Top,Signal*
%FSLAX46Y46*%
G04 Gerber Fmt 4.6, Leading zero omitted, Abs format (unit mm)*
G04 Created by KiCad (PCBNEW 4.0.7) date 05/24/18 12:52:19*
%MOMM*%
%LPD*%
G01*
G04 APERTURE LIST*
%ADD10C,0.100000*%
%ADD11C,5.300000*%
%ADD12C,2.200000*%
%ADD13R,1.574800X2.286000*%
%ADD14O,1.574800X2.286000*%
%ADD15C,3.000000*%
%ADD16C,2.500000*%
%ADD17C,1.800000*%
%ADD18O,4.000000X2.200000*%
%ADD19O,2.200000X4.000000*%
%ADD20C,1.000000*%
%ADD21C,0.254000*%
G04 APERTURE END LIST*
D10*
D11*
X165354000Y-76454000D03*
X121666000Y-76454000D03*
D12*
X127635000Y-77470000D03*
X131445000Y-77470000D03*
D11*
X165354000Y-96266000D03*
D12*
X147955000Y-78740000D03*
X140335000Y-78740000D03*
X140335000Y-75565000D03*
X147955000Y-75565000D03*
X147955000Y-97155000D03*
X140335000Y-97155000D03*
X147955000Y-93980000D03*
X140335000Y-93980000D03*
X134620000Y-82550000D03*
X134620000Y-90170000D03*
D13*
X140335000Y-90170000D03*
D14*
X142875000Y-90170000D03*
X145415000Y-90170000D03*
X147955000Y-90170000D03*
X147955000Y-82550000D03*
X145415000Y-82550000D03*
X142875000Y-82550000D03*
X140335000Y-82550000D03*
D15*
X122555000Y-83820000D03*
X122555000Y-88900000D03*
D16*
X135890000Y-77470000D03*
X135890000Y-95250000D03*
D12*
X127635000Y-95250000D03*
X131445000Y-95250000D03*
X154305000Y-95885000D03*
X159385000Y-95885000D03*
D17*
X129540000Y-85090000D03*
X129540000Y-87630000D03*
D11*
X121666000Y-96266000D03*
D18*
X161290000Y-81788000D03*
D19*
X153990000Y-82288000D03*
D18*
X158390000Y-88888000D03*
X157190000Y-91588000D03*
D19*
X165190000Y-86388000D03*
D20*
X165190000Y-74295000D02*
X165100000Y-74295000D01*
X165100000Y-74295000D02*
X164465000Y-73660000D01*
X122555000Y-88900000D02*
X120650000Y-88900000D01*
X120015000Y-88265000D02*
X120650000Y-88900000D01*
X120015000Y-74295000D02*
X120015000Y-88265000D01*
X164465000Y-73660000D02*
X120650000Y-73660000D01*
X120015000Y-74295000D02*
X120650000Y-73660000D01*
X165190000Y-86388000D02*
X165190000Y-74295000D01*
X127635000Y-95250000D02*
X127635000Y-93345000D01*
X139065000Y-92710000D02*
X140335000Y-93980000D01*
X128270000Y-92710000D02*
X139065000Y-92710000D01*
X127635000Y-93345000D02*
X128270000Y-92710000D01*
X156210000Y-99060000D02*
X132080000Y-99060000D01*
X157190000Y-98080000D02*
X156210000Y-99060000D01*
X157190000Y-91588000D02*
X157190000Y-98080000D01*
X131445000Y-98425000D02*
X131445000Y-95250000D01*
X132080000Y-99060000D02*
X131445000Y-98425000D01*
X157190000Y-91588000D02*
X160507000Y-91588000D01*
X161290000Y-90805000D02*
X161290000Y-81788000D01*
X160507000Y-91588000D02*
X161290000Y-90805000D01*
X161290000Y-81788000D02*
X160782000Y-81788000D01*
D21*
G36*
X119501491Y-74109886D02*
X121666000Y-76274395D01*
X123830509Y-74109886D01*
X123556815Y-73710000D01*
X163463185Y-73710000D01*
X163189491Y-74109886D01*
X165354000Y-76274395D01*
X167518509Y-74109886D01*
X167244815Y-73710000D01*
X168225000Y-73710000D01*
X168225000Y-74799574D01*
X168141385Y-74596940D01*
X168136386Y-74589458D01*
X167698114Y-74289491D01*
X165533605Y-76454000D01*
X167698114Y-78618509D01*
X168136386Y-78318542D01*
X168225000Y-78105419D01*
X168225000Y-94611574D01*
X168141385Y-94408940D01*
X168136386Y-94401458D01*
X167698114Y-94101491D01*
X165533605Y-96266000D01*
X167698114Y-98430509D01*
X168136386Y-98130542D01*
X168225000Y-97917419D01*
X168225000Y-99010000D01*
X167244815Y-99010000D01*
X167518509Y-98610114D01*
X165354000Y-96445605D01*
X163189491Y-98610114D01*
X163463185Y-99010000D01*
X157865132Y-99010000D01*
X157992566Y-98882566D01*
X158008082Y-98859345D01*
X158238603Y-98514346D01*
X158325000Y-98080000D01*
X158325000Y-97124608D01*
X158339738Y-97109870D01*
X158450641Y-97387099D01*
X159096593Y-97630323D01*
X159786453Y-97607836D01*
X160319359Y-97387099D01*
X160430263Y-97109868D01*
X159385000Y-96064605D01*
X159370858Y-96078748D01*
X159191253Y-95899143D01*
X159205395Y-95885000D01*
X159564605Y-95885000D01*
X160609868Y-96930263D01*
X160647986Y-96915014D01*
X162068126Y-96915014D01*
X162566615Y-98123060D01*
X162571614Y-98130542D01*
X163009886Y-98430509D01*
X165174395Y-96266000D01*
X163009886Y-94101491D01*
X162571614Y-94401458D01*
X162069881Y-95608161D01*
X162068126Y-96915014D01*
X160647986Y-96915014D01*
X160887099Y-96819359D01*
X161130323Y-96173407D01*
X161107836Y-95483547D01*
X160887099Y-94950641D01*
X160609868Y-94839737D01*
X159564605Y-95885000D01*
X159205395Y-95885000D01*
X159191253Y-95870858D01*
X159370858Y-95691253D01*
X159385000Y-95705395D01*
X160430263Y-94660132D01*
X160319359Y-94382901D01*
X159673407Y-94139677D01*
X158983547Y-94162164D01*
X158450641Y-94382901D01*
X158339738Y-94660130D01*
X158325000Y-94645392D01*
X158325000Y-93921886D01*
X163189491Y-93921886D01*
X165354000Y-96086395D01*
X167518509Y-93921886D01*
X167218542Y-93483614D01*
X166011839Y-92981881D01*
X164704986Y-92980126D01*
X163496940Y-93478615D01*
X163489458Y-93483614D01*
X163189491Y-93921886D01*
X158325000Y-93921886D01*
X158325000Y-93286524D01*
X158805579Y-93190931D01*
X159368453Y-92814830D01*
X159429812Y-92723000D01*
X160507000Y-92723000D01*
X160941346Y-92636603D01*
X161309566Y-92390566D01*
X162092566Y-91607566D01*
X162234686Y-91394868D01*
X162338603Y-91239346D01*
X162425000Y-90805000D01*
X162425000Y-86515000D01*
X163455000Y-86515000D01*
X163455000Y-87415000D01*
X163635670Y-88069288D01*
X164052972Y-88604632D01*
X164643376Y-88939531D01*
X164793878Y-88977175D01*
X165063000Y-88859125D01*
X165063000Y-86515000D01*
X165317000Y-86515000D01*
X165317000Y-88859125D01*
X165586122Y-88977175D01*
X165736624Y-88939531D01*
X166327028Y-88604632D01*
X166744330Y-88069288D01*
X166925000Y-87415000D01*
X166925000Y-86515000D01*
X165317000Y-86515000D01*
X165063000Y-86515000D01*
X163455000Y-86515000D01*
X162425000Y-86515000D01*
X162425000Y-85361000D01*
X163455000Y-85361000D01*
X163455000Y-86261000D01*
X165063000Y-86261000D01*
X165063000Y-83916875D01*
X165317000Y-83916875D01*
X165317000Y-86261000D01*
X166925000Y-86261000D01*
X166925000Y-85361000D01*
X166744330Y-84706712D01*
X166327028Y-84171368D01*
X165736624Y-83836469D01*
X165586122Y-83798825D01*
X165317000Y-83916875D01*
X165063000Y-83916875D01*
X164793878Y-83798825D01*
X164643376Y-83836469D01*
X164052972Y-84171368D01*
X163635670Y-84706712D01*
X163455000Y-85361000D01*
X162425000Y-85361000D01*
X162425000Y-83486524D01*
X162905579Y-83390931D01*
X163468453Y-83014830D01*
X163844554Y-82451956D01*
X163976623Y-81788000D01*
X163844554Y-81124044D01*
X163468453Y-80561170D01*
X162905579Y-80185069D01*
X162241623Y-80053000D01*
X160338377Y-80053000D01*
X159674421Y-80185069D01*
X159111547Y-80561170D01*
X158735446Y-81124044D01*
X158603377Y-81788000D01*
X158735446Y-82451956D01*
X159111547Y-83014830D01*
X159674421Y-83390931D01*
X160155000Y-83486524D01*
X160155000Y-87384909D01*
X160005579Y-87285069D01*
X159341623Y-87153000D01*
X157438377Y-87153000D01*
X156774421Y-87285069D01*
X156211547Y-87661170D01*
X155835446Y-88224044D01*
X155703377Y-88888000D01*
X155835446Y-89551956D01*
X156060270Y-89888428D01*
X155574421Y-89985069D01*
X155011547Y-90361170D01*
X154635446Y-90924044D01*
X154503377Y-91588000D01*
X154635446Y-92251956D01*
X155011547Y-92814830D01*
X155574421Y-93190931D01*
X156055000Y-93286524D01*
X156055000Y-97609868D01*
X155739868Y-97925000D01*
X149513899Y-97925000D01*
X149689699Y-97501627D01*
X149690301Y-96811401D01*
X149449492Y-96228599D01*
X152569699Y-96228599D01*
X152833281Y-96866515D01*
X153320918Y-97355004D01*
X153958373Y-97619699D01*
X154648599Y-97620301D01*
X155286515Y-97356719D01*
X155775004Y-96869082D01*
X156039699Y-96231627D01*
X156040301Y-95541401D01*
X155776719Y-94903485D01*
X155289082Y-94414996D01*
X154651627Y-94150301D01*
X153961401Y-94149699D01*
X153323485Y-94413281D01*
X152834996Y-94900918D01*
X152570301Y-95538373D01*
X152569699Y-96228599D01*
X149449492Y-96228599D01*
X149426719Y-96173485D01*
X148939082Y-95684996D01*
X148656212Y-95567538D01*
X148936515Y-95451719D01*
X149425004Y-94964082D01*
X149689699Y-94326627D01*
X149690301Y-93636401D01*
X149426719Y-92998485D01*
X148939082Y-92509996D01*
X148301627Y-92245301D01*
X147611401Y-92244699D01*
X146973485Y-92508281D01*
X146484996Y-92995918D01*
X146220301Y-93633373D01*
X146219699Y-94323599D01*
X146483281Y-94961515D01*
X146970918Y-95450004D01*
X147253788Y-95567462D01*
X146973485Y-95683281D01*
X146484996Y-96170918D01*
X146220301Y-96808373D01*
X146219699Y-97498599D01*
X146395885Y-97925000D01*
X141893899Y-97925000D01*
X142069699Y-97501627D01*
X142070301Y-96811401D01*
X141806719Y-96173485D01*
X141319082Y-95684996D01*
X141036212Y-95567538D01*
X141316515Y-95451719D01*
X141805004Y-94964082D01*
X142069699Y-94326627D01*
X142070301Y-93636401D01*
X141806719Y-92998485D01*
X141319082Y-92509996D01*
X140681627Y-92245301D01*
X140205017Y-92244885D01*
X139920572Y-91960440D01*
X141122400Y-91960440D01*
X141357717Y-91916162D01*
X141573841Y-91777090D01*
X141718831Y-91564890D01*
X141753600Y-91393197D01*
X141869211Y-91566222D01*
X142330671Y-91874559D01*
X142875000Y-91982833D01*
X143419329Y-91874559D01*
X143880789Y-91566222D01*
X144145000Y-91170801D01*
X144409211Y-91566222D01*
X144870671Y-91874559D01*
X145415000Y-91982833D01*
X145959329Y-91874559D01*
X146420789Y-91566222D01*
X146684754Y-91171170D01*
X146689475Y-91187262D01*
X147039014Y-91621191D01*
X147528004Y-91888327D01*
X147607940Y-91905010D01*
X147828000Y-91782852D01*
X147828000Y-90297000D01*
X148082000Y-90297000D01*
X148082000Y-91782852D01*
X148302060Y-91905010D01*
X148381996Y-91888327D01*
X148870986Y-91621191D01*
X149220525Y-91187262D01*
X149377400Y-90652600D01*
X149377400Y-90297000D01*
X148082000Y-90297000D01*
X147828000Y-90297000D01*
X147808000Y-90297000D01*
X147808000Y-90043000D01*
X147828000Y-90043000D01*
X147828000Y-88557148D01*
X148082000Y-88557148D01*
X148082000Y-90043000D01*
X149377400Y-90043000D01*
X149377400Y-89687400D01*
X149220525Y-89152738D01*
X148870986Y-88718809D01*
X148381996Y-88451673D01*
X148302060Y-88434990D01*
X148082000Y-88557148D01*
X147828000Y-88557148D01*
X147607940Y-88434990D01*
X147528004Y-88451673D01*
X147039014Y-88718809D01*
X146689475Y-89152738D01*
X146684754Y-89168830D01*
X146420789Y-88773778D01*
X145959329Y-88465441D01*
X145415000Y-88357167D01*
X144870671Y-88465441D01*
X144409211Y-88773778D01*
X144145000Y-89169199D01*
X143880789Y-88773778D01*
X143419329Y-88465441D01*
X142875000Y-88357167D01*
X142330671Y-88465441D01*
X141869211Y-88773778D01*
X141754497Y-88945460D01*
X141725562Y-88791683D01*
X141586490Y-88575559D01*
X141374290Y-88430569D01*
X141122400Y-88379560D01*
X139547600Y-88379560D01*
X139312283Y-88423838D01*
X139096159Y-88562910D01*
X138951169Y-88775110D01*
X138900160Y-89027000D01*
X138900160Y-91313000D01*
X138944438Y-91548317D01*
X138961608Y-91575000D01*
X135593203Y-91575000D01*
X135665263Y-91394868D01*
X134620000Y-90349605D01*
X133574737Y-91394868D01*
X133646797Y-91575000D01*
X128270000Y-91575000D01*
X127835655Y-91661396D01*
X127467434Y-91907434D01*
X126832434Y-92542434D01*
X126586397Y-92910654D01*
X126500000Y-93345000D01*
X126500000Y-93931498D01*
X126164996Y-94265918D01*
X125900301Y-94903373D01*
X125899699Y-95593599D01*
X126163281Y-96231515D01*
X126650918Y-96720004D01*
X127288373Y-96984699D01*
X127978599Y-96985301D01*
X128616515Y-96721719D01*
X129105004Y-96234082D01*
X129369699Y-95596627D01*
X129370301Y-94906401D01*
X129106719Y-94268485D01*
X128770000Y-93931178D01*
X128770000Y-93845000D01*
X130396649Y-93845000D01*
X129974996Y-94265918D01*
X129710301Y-94903373D01*
X129709699Y-95593599D01*
X129973281Y-96231515D01*
X130310000Y-96568822D01*
X130310000Y-98425000D01*
X130396397Y-98859346D01*
X130497061Y-99010000D01*
X123556815Y-99010000D01*
X123830509Y-98610114D01*
X121666000Y-96445605D01*
X119501491Y-98610114D01*
X119775185Y-99010000D01*
X118795000Y-99010000D01*
X118795000Y-97920426D01*
X118878615Y-98123060D01*
X118883614Y-98130542D01*
X119321886Y-98430509D01*
X121486395Y-96266000D01*
X121845605Y-96266000D01*
X124010114Y-98430509D01*
X124448386Y-98130542D01*
X124950119Y-96923839D01*
X124951874Y-95616986D01*
X124453385Y-94408940D01*
X124448386Y-94401458D01*
X124010114Y-94101491D01*
X121845605Y-96266000D01*
X121486395Y-96266000D01*
X119321886Y-94101491D01*
X118883614Y-94401458D01*
X118795000Y-94614581D01*
X118795000Y-93921886D01*
X119501491Y-93921886D01*
X121666000Y-96086395D01*
X123830509Y-93921886D01*
X123530542Y-93483614D01*
X122323839Y-92981881D01*
X121016986Y-92980126D01*
X119808940Y-93478615D01*
X119801458Y-93483614D01*
X119501491Y-93921886D01*
X118795000Y-93921886D01*
X118795000Y-90413970D01*
X121220635Y-90413970D01*
X121380418Y-90732739D01*
X122171187Y-91042723D01*
X123020387Y-91026497D01*
X123729582Y-90732739D01*
X123889365Y-90413970D01*
X122555000Y-89079605D01*
X121220635Y-90413970D01*
X118795000Y-90413970D01*
X118795000Y-88516187D01*
X120412277Y-88516187D01*
X120428503Y-89365387D01*
X120722261Y-90074582D01*
X121041030Y-90234365D01*
X122375395Y-88900000D01*
X122734605Y-88900000D01*
X124068970Y-90234365D01*
X124387739Y-90074582D01*
X124463391Y-89881593D01*
X132874677Y-89881593D01*
X132897164Y-90571453D01*
X133117901Y-91104359D01*
X133395132Y-91215263D01*
X134440395Y-90170000D01*
X134799605Y-90170000D01*
X135844868Y-91215263D01*
X136122099Y-91104359D01*
X136365323Y-90458407D01*
X136342836Y-89768547D01*
X136122099Y-89235641D01*
X135844868Y-89124737D01*
X134799605Y-90170000D01*
X134440395Y-90170000D01*
X133395132Y-89124737D01*
X133117901Y-89235641D01*
X132874677Y-89881593D01*
X124463391Y-89881593D01*
X124697723Y-89283813D01*
X124681497Y-88434613D01*
X124387739Y-87725418D01*
X124068970Y-87565635D01*
X122734605Y-88900000D01*
X122375395Y-88900000D01*
X121041030Y-87565635D01*
X120722261Y-87725418D01*
X120412277Y-88516187D01*
X118795000Y-88516187D01*
X118795000Y-87386030D01*
X121220635Y-87386030D01*
X122555000Y-88720395D01*
X123889365Y-87386030D01*
X123729582Y-87067261D01*
X122938813Y-86757277D01*
X122089613Y-86773503D01*
X121380418Y-87067261D01*
X121220635Y-87386030D01*
X118795000Y-87386030D01*
X118795000Y-84242815D01*
X120419630Y-84242815D01*
X120743980Y-85027800D01*
X121344041Y-85628909D01*
X122128459Y-85954628D01*
X122977815Y-85955370D01*
X123762800Y-85631020D01*
X124000242Y-85393991D01*
X128004735Y-85393991D01*
X128237932Y-85958371D01*
X128639182Y-86360323D01*
X128239449Y-86759357D01*
X128005267Y-87323330D01*
X128004735Y-87933991D01*
X128237932Y-88498371D01*
X128669357Y-88930551D01*
X129233330Y-89164733D01*
X129843991Y-89165265D01*
X130376753Y-88945132D01*
X133574737Y-88945132D01*
X134620000Y-89990395D01*
X135665263Y-88945132D01*
X135554359Y-88667901D01*
X134908407Y-88424677D01*
X134218547Y-88447164D01*
X133685641Y-88667901D01*
X133574737Y-88945132D01*
X130376753Y-88945132D01*
X130408371Y-88932068D01*
X130840551Y-88500643D01*
X131074733Y-87936670D01*
X131075265Y-87326009D01*
X130842068Y-86761629D01*
X130440818Y-86359677D01*
X130840551Y-85960643D01*
X131074733Y-85396670D01*
X131075265Y-84786009D01*
X130842068Y-84221629D01*
X130410643Y-83789449D01*
X129846670Y-83555267D01*
X129236009Y-83554735D01*
X128671629Y-83787932D01*
X128239449Y-84219357D01*
X128005267Y-84783330D01*
X128004735Y-85393991D01*
X124000242Y-85393991D01*
X124363909Y-85030959D01*
X124689628Y-84246541D01*
X124690370Y-83397185D01*
X124482292Y-82893599D01*
X132884699Y-82893599D01*
X133148281Y-83531515D01*
X133635918Y-84020004D01*
X134273373Y-84284699D01*
X134963599Y-84285301D01*
X135601515Y-84021719D01*
X136090004Y-83534082D01*
X136354699Y-82896627D01*
X136355301Y-82206401D01*
X136335950Y-82159567D01*
X138912600Y-82159567D01*
X138912600Y-82940433D01*
X139020874Y-83484762D01*
X139329211Y-83946222D01*
X139790671Y-84254559D01*
X140335000Y-84362833D01*
X140879329Y-84254559D01*
X141340789Y-83946222D01*
X141605000Y-83550801D01*
X141869211Y-83946222D01*
X142330671Y-84254559D01*
X142875000Y-84362833D01*
X143419329Y-84254559D01*
X143880789Y-83946222D01*
X144145000Y-83550801D01*
X144409211Y-83946222D01*
X144870671Y-84254559D01*
X145415000Y-84362833D01*
X145959329Y-84254559D01*
X146420789Y-83946222D01*
X146685000Y-83550801D01*
X146949211Y-83946222D01*
X147410671Y-84254559D01*
X147955000Y-84362833D01*
X148499329Y-84254559D01*
X148960789Y-83946222D01*
X149269126Y-83484762D01*
X149377400Y-82940433D01*
X149377400Y-82159567D01*
X149269126Y-81615238D01*
X149082798Y-81336377D01*
X152255000Y-81336377D01*
X152255000Y-83239623D01*
X152387069Y-83903579D01*
X152763170Y-84466453D01*
X153326044Y-84842554D01*
X153990000Y-84974623D01*
X154653956Y-84842554D01*
X155216830Y-84466453D01*
X155592931Y-83903579D01*
X155725000Y-83239623D01*
X155725000Y-81336377D01*
X155592931Y-80672421D01*
X155216830Y-80109547D01*
X154653956Y-79733446D01*
X153990000Y-79601377D01*
X153326044Y-79733446D01*
X152763170Y-80109547D01*
X152387069Y-80672421D01*
X152255000Y-81336377D01*
X149082798Y-81336377D01*
X148960789Y-81153778D01*
X148499329Y-80845441D01*
X147955000Y-80737167D01*
X147410671Y-80845441D01*
X146949211Y-81153778D01*
X146685000Y-81549199D01*
X146420789Y-81153778D01*
X145959329Y-80845441D01*
X145415000Y-80737167D01*
X144870671Y-80845441D01*
X144409211Y-81153778D01*
X144145000Y-81549199D01*
X143880789Y-81153778D01*
X143419329Y-80845441D01*
X142875000Y-80737167D01*
X142330671Y-80845441D01*
X141869211Y-81153778D01*
X141605000Y-81549199D01*
X141340789Y-81153778D01*
X140879329Y-80845441D01*
X140335000Y-80737167D01*
X139790671Y-80845441D01*
X139329211Y-81153778D01*
X139020874Y-81615238D01*
X138912600Y-82159567D01*
X136335950Y-82159567D01*
X136091719Y-81568485D01*
X135604082Y-81079996D01*
X134966627Y-80815301D01*
X134276401Y-80814699D01*
X133638485Y-81078281D01*
X133149996Y-81565918D01*
X132885301Y-82203373D01*
X132884699Y-82893599D01*
X124482292Y-82893599D01*
X124366020Y-82612200D01*
X123765959Y-82011091D01*
X122981541Y-81685372D01*
X122132185Y-81684630D01*
X121347200Y-82008980D01*
X120746091Y-82609041D01*
X120420372Y-83393459D01*
X120419630Y-84242815D01*
X118795000Y-84242815D01*
X118795000Y-78798114D01*
X119501491Y-78798114D01*
X119801458Y-79236386D01*
X121008161Y-79738119D01*
X122315014Y-79739874D01*
X123523060Y-79241385D01*
X123530542Y-79236386D01*
X123830509Y-78798114D01*
X121666000Y-76633605D01*
X119501491Y-78798114D01*
X118795000Y-78798114D01*
X118795000Y-78108426D01*
X118878615Y-78311060D01*
X118883614Y-78318542D01*
X119321886Y-78618509D01*
X121486395Y-76454000D01*
X121845605Y-76454000D01*
X124010114Y-78618509D01*
X124448386Y-78318542D01*
X124658335Y-77813599D01*
X125899699Y-77813599D01*
X126163281Y-78451515D01*
X126650918Y-78940004D01*
X127288373Y-79204699D01*
X127978599Y-79205301D01*
X128616515Y-78941719D01*
X129105004Y-78454082D01*
X129369699Y-77816627D01*
X129369701Y-77813599D01*
X129709699Y-77813599D01*
X129973281Y-78451515D01*
X130460918Y-78940004D01*
X131098373Y-79204699D01*
X131788599Y-79205301D01*
X132426515Y-78941719D01*
X132915004Y-78454082D01*
X133168621Y-77843305D01*
X134004674Y-77843305D01*
X134291043Y-78536372D01*
X134820839Y-79067093D01*
X135513405Y-79354672D01*
X136263305Y-79355326D01*
X136920935Y-79083599D01*
X138599699Y-79083599D01*
X138863281Y-79721515D01*
X139350918Y-80210004D01*
X139988373Y-80474699D01*
X140678599Y-80475301D01*
X141316515Y-80211719D01*
X141805004Y-79724082D01*
X142069699Y-79086627D01*
X142070301Y-78396401D01*
X141806719Y-77758485D01*
X141319082Y-77269996D01*
X141049635Y-77158112D01*
X141269359Y-77067099D01*
X141380263Y-76789868D01*
X140335000Y-75744605D01*
X139289737Y-76789868D01*
X139400641Y-77067099D01*
X139630717Y-77153731D01*
X139353485Y-77268281D01*
X138864996Y-77755918D01*
X138600301Y-78393373D01*
X138599699Y-79083599D01*
X136920935Y-79083599D01*
X136956372Y-79068957D01*
X137487093Y-78539161D01*
X137774672Y-77846595D01*
X137775326Y-77096695D01*
X137488957Y-76403628D01*
X136959161Y-75872907D01*
X136266595Y-75585328D01*
X135516695Y-75584674D01*
X134823628Y-75871043D01*
X134292907Y-76400839D01*
X134005328Y-77093405D01*
X134004674Y-77843305D01*
X133168621Y-77843305D01*
X133179699Y-77816627D01*
X133180301Y-77126401D01*
X132916719Y-76488485D01*
X132429082Y-75999996D01*
X131791627Y-75735301D01*
X131101401Y-75734699D01*
X130463485Y-75998281D01*
X129974996Y-76485918D01*
X129710301Y-77123373D01*
X129709699Y-77813599D01*
X129369701Y-77813599D01*
X129370301Y-77126401D01*
X129106719Y-76488485D01*
X128619082Y-75999996D01*
X127981627Y-75735301D01*
X127291401Y-75734699D01*
X126653485Y-75998281D01*
X126164996Y-76485918D01*
X125900301Y-77123373D01*
X125899699Y-77813599D01*
X124658335Y-77813599D01*
X124950119Y-77111839D01*
X124951874Y-75804986D01*
X124733838Y-75276593D01*
X138589677Y-75276593D01*
X138612164Y-75966453D01*
X138832901Y-76499359D01*
X139110132Y-76610263D01*
X140155395Y-75565000D01*
X140514605Y-75565000D01*
X141559868Y-76610263D01*
X141837099Y-76499359D01*
X142059541Y-75908599D01*
X146219699Y-75908599D01*
X146483281Y-76546515D01*
X146970918Y-77035004D01*
X147253788Y-77152462D01*
X146973485Y-77268281D01*
X146484996Y-77755918D01*
X146220301Y-78393373D01*
X146219699Y-79083599D01*
X146483281Y-79721515D01*
X146970918Y-80210004D01*
X147608373Y-80474699D01*
X148298599Y-80475301D01*
X148936515Y-80211719D01*
X149425004Y-79724082D01*
X149689699Y-79086627D01*
X149689950Y-78798114D01*
X163189491Y-78798114D01*
X163489458Y-79236386D01*
X164696161Y-79738119D01*
X166003014Y-79739874D01*
X167211060Y-79241385D01*
X167218542Y-79236386D01*
X167518509Y-78798114D01*
X165354000Y-76633605D01*
X163189491Y-78798114D01*
X149689950Y-78798114D01*
X149690301Y-78396401D01*
X149426719Y-77758485D01*
X148939082Y-77269996D01*
X148656212Y-77152538D01*
X148776069Y-77103014D01*
X162068126Y-77103014D01*
X162566615Y-78311060D01*
X162571614Y-78318542D01*
X163009886Y-78618509D01*
X165174395Y-76454000D01*
X163009886Y-74289491D01*
X162571614Y-74589458D01*
X162069881Y-75796161D01*
X162068126Y-77103014D01*
X148776069Y-77103014D01*
X148936515Y-77036719D01*
X149425004Y-76549082D01*
X149689699Y-75911627D01*
X149690301Y-75221401D01*
X149426719Y-74583485D01*
X148939082Y-74094996D01*
X148301627Y-73830301D01*
X147611401Y-73829699D01*
X146973485Y-74093281D01*
X146484996Y-74580918D01*
X146220301Y-75218373D01*
X146219699Y-75908599D01*
X142059541Y-75908599D01*
X142080323Y-75853407D01*
X142057836Y-75163547D01*
X141837099Y-74630641D01*
X141559868Y-74519737D01*
X140514605Y-75565000D01*
X140155395Y-75565000D01*
X139110132Y-74519737D01*
X138832901Y-74630641D01*
X138589677Y-75276593D01*
X124733838Y-75276593D01*
X124453385Y-74596940D01*
X124448386Y-74589458D01*
X124084104Y-74340132D01*
X139289737Y-74340132D01*
X140335000Y-75385395D01*
X141380263Y-74340132D01*
X141269359Y-74062901D01*
X140623407Y-73819677D01*
X139933547Y-73842164D01*
X139400641Y-74062901D01*
X139289737Y-74340132D01*
X124084104Y-74340132D01*
X124010114Y-74289491D01*
X121845605Y-76454000D01*
X121486395Y-76454000D01*
X119321886Y-74289491D01*
X118883614Y-74589458D01*
X118795000Y-74802581D01*
X118795000Y-73710000D01*
X119775185Y-73710000D01*
X119501491Y-74109886D01*
X119501491Y-74109886D01*
G37*
X119501491Y-74109886D02*
X121666000Y-76274395D01*
X123830509Y-74109886D01*
X123556815Y-73710000D01*
X163463185Y-73710000D01*
X163189491Y-74109886D01*
X165354000Y-76274395D01*
X167518509Y-74109886D01*
X167244815Y-73710000D01*
X168225000Y-73710000D01*
X168225000Y-74799574D01*
X168141385Y-74596940D01*
X168136386Y-74589458D01*
X167698114Y-74289491D01*
X165533605Y-76454000D01*
X167698114Y-78618509D01*
X168136386Y-78318542D01*
X168225000Y-78105419D01*
X168225000Y-94611574D01*
X168141385Y-94408940D01*
X168136386Y-94401458D01*
X167698114Y-94101491D01*
X165533605Y-96266000D01*
X167698114Y-98430509D01*
X168136386Y-98130542D01*
X168225000Y-97917419D01*
X168225000Y-99010000D01*
X167244815Y-99010000D01*
X167518509Y-98610114D01*
X165354000Y-96445605D01*
X163189491Y-98610114D01*
X163463185Y-99010000D01*
X157865132Y-99010000D01*
X157992566Y-98882566D01*
X158008082Y-98859345D01*
X158238603Y-98514346D01*
X158325000Y-98080000D01*
X158325000Y-97124608D01*
X158339738Y-97109870D01*
X158450641Y-97387099D01*
X159096593Y-97630323D01*
X159786453Y-97607836D01*
X160319359Y-97387099D01*
X160430263Y-97109868D01*
X159385000Y-96064605D01*
X159370858Y-96078748D01*
X159191253Y-95899143D01*
X159205395Y-95885000D01*
X159564605Y-95885000D01*
X160609868Y-96930263D01*
X160647986Y-96915014D01*
X162068126Y-96915014D01*
X162566615Y-98123060D01*
X162571614Y-98130542D01*
X163009886Y-98430509D01*
X165174395Y-96266000D01*
X163009886Y-94101491D01*
X162571614Y-94401458D01*
X162069881Y-95608161D01*
X162068126Y-96915014D01*
X160647986Y-96915014D01*
X160887099Y-96819359D01*
X161130323Y-96173407D01*
X161107836Y-95483547D01*
X160887099Y-94950641D01*
X160609868Y-94839737D01*
X159564605Y-95885000D01*
X159205395Y-95885000D01*
X159191253Y-95870858D01*
X159370858Y-95691253D01*
X159385000Y-95705395D01*
X160430263Y-94660132D01*
X160319359Y-94382901D01*
X159673407Y-94139677D01*
X158983547Y-94162164D01*
X158450641Y-94382901D01*
X158339738Y-94660130D01*
X158325000Y-94645392D01*
X158325000Y-93921886D01*
X163189491Y-93921886D01*
X165354000Y-96086395D01*
X167518509Y-93921886D01*
X167218542Y-93483614D01*
X166011839Y-92981881D01*
X164704986Y-92980126D01*
X163496940Y-93478615D01*
X163489458Y-93483614D01*
X163189491Y-93921886D01*
X158325000Y-93921886D01*
X158325000Y-93286524D01*
X158805579Y-93190931D01*
X159368453Y-92814830D01*
X159429812Y-92723000D01*
X160507000Y-92723000D01*
X160941346Y-92636603D01*
X161309566Y-92390566D01*
X162092566Y-91607566D01*
X162234686Y-91394868D01*
X162338603Y-91239346D01*
X162425000Y-90805000D01*
X162425000Y-86515000D01*
X163455000Y-86515000D01*
X163455000Y-87415000D01*
X163635670Y-88069288D01*
X164052972Y-88604632D01*
X164643376Y-88939531D01*
X164793878Y-88977175D01*
X165063000Y-88859125D01*
X165063000Y-86515000D01*
X165317000Y-86515000D01*
X165317000Y-88859125D01*
X165586122Y-88977175D01*
X165736624Y-88939531D01*
X166327028Y-88604632D01*
X166744330Y-88069288D01*
X166925000Y-87415000D01*
X166925000Y-86515000D01*
X165317000Y-86515000D01*
X165063000Y-86515000D01*
X163455000Y-86515000D01*
X162425000Y-86515000D01*
X162425000Y-85361000D01*
X163455000Y-85361000D01*
X163455000Y-86261000D01*
X165063000Y-86261000D01*
X165063000Y-83916875D01*
X165317000Y-83916875D01*
X165317000Y-86261000D01*
X166925000Y-86261000D01*
X166925000Y-85361000D01*
X166744330Y-84706712D01*
X166327028Y-84171368D01*
X165736624Y-83836469D01*
X165586122Y-83798825D01*
X165317000Y-83916875D01*
X165063000Y-83916875D01*
X164793878Y-83798825D01*
X164643376Y-83836469D01*
X164052972Y-84171368D01*
X163635670Y-84706712D01*
X163455000Y-85361000D01*
X162425000Y-85361000D01*
X162425000Y-83486524D01*
X162905579Y-83390931D01*
X163468453Y-83014830D01*
X163844554Y-82451956D01*
X163976623Y-81788000D01*
X163844554Y-81124044D01*
X163468453Y-80561170D01*
X162905579Y-80185069D01*
X162241623Y-80053000D01*
X160338377Y-80053000D01*
X159674421Y-80185069D01*
X159111547Y-80561170D01*
X158735446Y-81124044D01*
X158603377Y-81788000D01*
X158735446Y-82451956D01*
X159111547Y-83014830D01*
X159674421Y-83390931D01*
X160155000Y-83486524D01*
X160155000Y-87384909D01*
X160005579Y-87285069D01*
X159341623Y-87153000D01*
X157438377Y-87153000D01*
X156774421Y-87285069D01*
X156211547Y-87661170D01*
X155835446Y-88224044D01*
X155703377Y-88888000D01*
X155835446Y-89551956D01*
X156060270Y-89888428D01*
X155574421Y-89985069D01*
X155011547Y-90361170D01*
X154635446Y-90924044D01*
X154503377Y-91588000D01*
X154635446Y-92251956D01*
X155011547Y-92814830D01*
X155574421Y-93190931D01*
X156055000Y-93286524D01*
X156055000Y-97609868D01*
X155739868Y-97925000D01*
X149513899Y-97925000D01*
X149689699Y-97501627D01*
X149690301Y-96811401D01*
X149449492Y-96228599D01*
X152569699Y-96228599D01*
X152833281Y-96866515D01*
X153320918Y-97355004D01*
X153958373Y-97619699D01*
X154648599Y-97620301D01*
X155286515Y-97356719D01*
X155775004Y-96869082D01*
X156039699Y-96231627D01*
X156040301Y-95541401D01*
X155776719Y-94903485D01*
X155289082Y-94414996D01*
X154651627Y-94150301D01*
X153961401Y-94149699D01*
X153323485Y-94413281D01*
X152834996Y-94900918D01*
X152570301Y-95538373D01*
X152569699Y-96228599D01*
X149449492Y-96228599D01*
X149426719Y-96173485D01*
X148939082Y-95684996D01*
X148656212Y-95567538D01*
X148936515Y-95451719D01*
X149425004Y-94964082D01*
X149689699Y-94326627D01*
X149690301Y-93636401D01*
X149426719Y-92998485D01*
X148939082Y-92509996D01*
X148301627Y-92245301D01*
X147611401Y-92244699D01*
X146973485Y-92508281D01*
X146484996Y-92995918D01*
X146220301Y-93633373D01*
X146219699Y-94323599D01*
X146483281Y-94961515D01*
X146970918Y-95450004D01*
X147253788Y-95567462D01*
X146973485Y-95683281D01*
X146484996Y-96170918D01*
X146220301Y-96808373D01*
X146219699Y-97498599D01*
X146395885Y-97925000D01*
X141893899Y-97925000D01*
X142069699Y-97501627D01*
X142070301Y-96811401D01*
X141806719Y-96173485D01*
X141319082Y-95684996D01*
X141036212Y-95567538D01*
X141316515Y-95451719D01*
X141805004Y-94964082D01*
X142069699Y-94326627D01*
X142070301Y-93636401D01*
X141806719Y-92998485D01*
X141319082Y-92509996D01*
X140681627Y-92245301D01*
X140205017Y-92244885D01*
X139920572Y-91960440D01*
X141122400Y-91960440D01*
X141357717Y-91916162D01*
X141573841Y-91777090D01*
X141718831Y-91564890D01*
X141753600Y-91393197D01*
X141869211Y-91566222D01*
X142330671Y-91874559D01*
X142875000Y-91982833D01*
X143419329Y-91874559D01*
X143880789Y-91566222D01*
X144145000Y-91170801D01*
X144409211Y-91566222D01*
X144870671Y-91874559D01*
X145415000Y-91982833D01*
X145959329Y-91874559D01*
X146420789Y-91566222D01*
X146684754Y-91171170D01*
X146689475Y-91187262D01*
X147039014Y-91621191D01*
X147528004Y-91888327D01*
X147607940Y-91905010D01*
X147828000Y-91782852D01*
X147828000Y-90297000D01*
X148082000Y-90297000D01*
X148082000Y-91782852D01*
X148302060Y-91905010D01*
X148381996Y-91888327D01*
X148870986Y-91621191D01*
X149220525Y-91187262D01*
X149377400Y-90652600D01*
X149377400Y-90297000D01*
X148082000Y-90297000D01*
X147828000Y-90297000D01*
X147808000Y-90297000D01*
X147808000Y-90043000D01*
X147828000Y-90043000D01*
X147828000Y-88557148D01*
X148082000Y-88557148D01*
X148082000Y-90043000D01*
X149377400Y-90043000D01*
X149377400Y-89687400D01*
X149220525Y-89152738D01*
X148870986Y-88718809D01*
X148381996Y-88451673D01*
X148302060Y-88434990D01*
X148082000Y-88557148D01*
X147828000Y-88557148D01*
X147607940Y-88434990D01*
X147528004Y-88451673D01*
X147039014Y-88718809D01*
X146689475Y-89152738D01*
X146684754Y-89168830D01*
X146420789Y-88773778D01*
X145959329Y-88465441D01*
X145415000Y-88357167D01*
X144870671Y-88465441D01*
X144409211Y-88773778D01*
X144145000Y-89169199D01*
X143880789Y-88773778D01*
X143419329Y-88465441D01*
X142875000Y-88357167D01*
X142330671Y-88465441D01*
X141869211Y-88773778D01*
X141754497Y-88945460D01*
X141725562Y-88791683D01*
X141586490Y-88575559D01*
X141374290Y-88430569D01*
X141122400Y-88379560D01*
X139547600Y-88379560D01*
X139312283Y-88423838D01*
X139096159Y-88562910D01*
X138951169Y-88775110D01*
X138900160Y-89027000D01*
X138900160Y-91313000D01*
X138944438Y-91548317D01*
X138961608Y-91575000D01*
X135593203Y-91575000D01*
X135665263Y-91394868D01*
X134620000Y-90349605D01*
X133574737Y-91394868D01*
X133646797Y-91575000D01*
X128270000Y-91575000D01*
X127835655Y-91661396D01*
X127467434Y-91907434D01*
X126832434Y-92542434D01*
X126586397Y-92910654D01*
X126500000Y-93345000D01*
X126500000Y-93931498D01*
X126164996Y-94265918D01*
X125900301Y-94903373D01*
X125899699Y-95593599D01*
X126163281Y-96231515D01*
X126650918Y-96720004D01*
X127288373Y-96984699D01*
X127978599Y-96985301D01*
X128616515Y-96721719D01*
X129105004Y-96234082D01*
X129369699Y-95596627D01*
X129370301Y-94906401D01*
X129106719Y-94268485D01*
X128770000Y-93931178D01*
X128770000Y-93845000D01*
X130396649Y-93845000D01*
X129974996Y-94265918D01*
X129710301Y-94903373D01*
X129709699Y-95593599D01*
X129973281Y-96231515D01*
X130310000Y-96568822D01*
X130310000Y-98425000D01*
X130396397Y-98859346D01*
X130497061Y-99010000D01*
X123556815Y-99010000D01*
X123830509Y-98610114D01*
X121666000Y-96445605D01*
X119501491Y-98610114D01*
X119775185Y-99010000D01*
X118795000Y-99010000D01*
X118795000Y-97920426D01*
X118878615Y-98123060D01*
X118883614Y-98130542D01*
X119321886Y-98430509D01*
X121486395Y-96266000D01*
X121845605Y-96266000D01*
X124010114Y-98430509D01*
X124448386Y-98130542D01*
X124950119Y-96923839D01*
X124951874Y-95616986D01*
X124453385Y-94408940D01*
X124448386Y-94401458D01*
X124010114Y-94101491D01*
X121845605Y-96266000D01*
X121486395Y-96266000D01*
X119321886Y-94101491D01*
X118883614Y-94401458D01*
X118795000Y-94614581D01*
X118795000Y-93921886D01*
X119501491Y-93921886D01*
X121666000Y-96086395D01*
X123830509Y-93921886D01*
X123530542Y-93483614D01*
X122323839Y-92981881D01*
X121016986Y-92980126D01*
X119808940Y-93478615D01*
X119801458Y-93483614D01*
X119501491Y-93921886D01*
X118795000Y-93921886D01*
X118795000Y-90413970D01*
X121220635Y-90413970D01*
X121380418Y-90732739D01*
X122171187Y-91042723D01*
X123020387Y-91026497D01*
X123729582Y-90732739D01*
X123889365Y-90413970D01*
X122555000Y-89079605D01*
X121220635Y-90413970D01*
X118795000Y-90413970D01*
X118795000Y-88516187D01*
X120412277Y-88516187D01*
X120428503Y-89365387D01*
X120722261Y-90074582D01*
X121041030Y-90234365D01*
X122375395Y-88900000D01*
X122734605Y-88900000D01*
X124068970Y-90234365D01*
X124387739Y-90074582D01*
X124463391Y-89881593D01*
X132874677Y-89881593D01*
X132897164Y-90571453D01*
X133117901Y-91104359D01*
X133395132Y-91215263D01*
X134440395Y-90170000D01*
X134799605Y-90170000D01*
X135844868Y-91215263D01*
X136122099Y-91104359D01*
X136365323Y-90458407D01*
X136342836Y-89768547D01*
X136122099Y-89235641D01*
X135844868Y-89124737D01*
X134799605Y-90170000D01*
X134440395Y-90170000D01*
X133395132Y-89124737D01*
X133117901Y-89235641D01*
X132874677Y-89881593D01*
X124463391Y-89881593D01*
X124697723Y-89283813D01*
X124681497Y-88434613D01*
X124387739Y-87725418D01*
X124068970Y-87565635D01*
X122734605Y-88900000D01*
X122375395Y-88900000D01*
X121041030Y-87565635D01*
X120722261Y-87725418D01*
X120412277Y-88516187D01*
X118795000Y-88516187D01*
X118795000Y-87386030D01*
X121220635Y-87386030D01*
X122555000Y-88720395D01*
X123889365Y-87386030D01*
X123729582Y-87067261D01*
X122938813Y-86757277D01*
X122089613Y-86773503D01*
X121380418Y-87067261D01*
X121220635Y-87386030D01*
X118795000Y-87386030D01*
X118795000Y-84242815D01*
X120419630Y-84242815D01*
X120743980Y-85027800D01*
X121344041Y-85628909D01*
X122128459Y-85954628D01*
X122977815Y-85955370D01*
X123762800Y-85631020D01*
X124000242Y-85393991D01*
X128004735Y-85393991D01*
X128237932Y-85958371D01*
X128639182Y-86360323D01*
X128239449Y-86759357D01*
X128005267Y-87323330D01*
X128004735Y-87933991D01*
X128237932Y-88498371D01*
X128669357Y-88930551D01*
X129233330Y-89164733D01*
X129843991Y-89165265D01*
X130376753Y-88945132D01*
X133574737Y-88945132D01*
X134620000Y-89990395D01*
X135665263Y-88945132D01*
X135554359Y-88667901D01*
X134908407Y-88424677D01*
X134218547Y-88447164D01*
X133685641Y-88667901D01*
X133574737Y-88945132D01*
X130376753Y-88945132D01*
X130408371Y-88932068D01*
X130840551Y-88500643D01*
X131074733Y-87936670D01*
X131075265Y-87326009D01*
X130842068Y-86761629D01*
X130440818Y-86359677D01*
X130840551Y-85960643D01*
X131074733Y-85396670D01*
X131075265Y-84786009D01*
X130842068Y-84221629D01*
X130410643Y-83789449D01*
X129846670Y-83555267D01*
X129236009Y-83554735D01*
X128671629Y-83787932D01*
X128239449Y-84219357D01*
X128005267Y-84783330D01*
X128004735Y-85393991D01*
X124000242Y-85393991D01*
X124363909Y-85030959D01*
X124689628Y-84246541D01*
X124690370Y-83397185D01*
X124482292Y-82893599D01*
X132884699Y-82893599D01*
X133148281Y-83531515D01*
X133635918Y-84020004D01*
X134273373Y-84284699D01*
X134963599Y-84285301D01*
X135601515Y-84021719D01*
X136090004Y-83534082D01*
X136354699Y-82896627D01*
X136355301Y-82206401D01*
X136335950Y-82159567D01*
X138912600Y-82159567D01*
X138912600Y-82940433D01*
X139020874Y-83484762D01*
X139329211Y-83946222D01*
X139790671Y-84254559D01*
X140335000Y-84362833D01*
X140879329Y-84254559D01*
X141340789Y-83946222D01*
X141605000Y-83550801D01*
X141869211Y-83946222D01*
X142330671Y-84254559D01*
X142875000Y-84362833D01*
X143419329Y-84254559D01*
X143880789Y-83946222D01*
X144145000Y-83550801D01*
X144409211Y-83946222D01*
X144870671Y-84254559D01*
X145415000Y-84362833D01*
X145959329Y-84254559D01*
X146420789Y-83946222D01*
X146685000Y-83550801D01*
X146949211Y-83946222D01*
X147410671Y-84254559D01*
X147955000Y-84362833D01*
X148499329Y-84254559D01*
X148960789Y-83946222D01*
X149269126Y-83484762D01*
X149377400Y-82940433D01*
X149377400Y-82159567D01*
X149269126Y-81615238D01*
X149082798Y-81336377D01*
X152255000Y-81336377D01*
X152255000Y-83239623D01*
X152387069Y-83903579D01*
X152763170Y-84466453D01*
X153326044Y-84842554D01*
X153990000Y-84974623D01*
X154653956Y-84842554D01*
X155216830Y-84466453D01*
X155592931Y-83903579D01*
X155725000Y-83239623D01*
X155725000Y-81336377D01*
X155592931Y-80672421D01*
X155216830Y-80109547D01*
X154653956Y-79733446D01*
X153990000Y-79601377D01*
X153326044Y-79733446D01*
X152763170Y-80109547D01*
X152387069Y-80672421D01*
X152255000Y-81336377D01*
X149082798Y-81336377D01*
X148960789Y-81153778D01*
X148499329Y-80845441D01*
X147955000Y-80737167D01*
X147410671Y-80845441D01*
X146949211Y-81153778D01*
X146685000Y-81549199D01*
X146420789Y-81153778D01*
X145959329Y-80845441D01*
X145415000Y-80737167D01*
X144870671Y-80845441D01*
X144409211Y-81153778D01*
X144145000Y-81549199D01*
X143880789Y-81153778D01*
X143419329Y-80845441D01*
X142875000Y-80737167D01*
X142330671Y-80845441D01*
X141869211Y-81153778D01*
X141605000Y-81549199D01*
X141340789Y-81153778D01*
X140879329Y-80845441D01*
X140335000Y-80737167D01*
X139790671Y-80845441D01*
X139329211Y-81153778D01*
X139020874Y-81615238D01*
X138912600Y-82159567D01*
X136335950Y-82159567D01*
X136091719Y-81568485D01*
X135604082Y-81079996D01*
X134966627Y-80815301D01*
X134276401Y-80814699D01*
X133638485Y-81078281D01*
X133149996Y-81565918D01*
X132885301Y-82203373D01*
X132884699Y-82893599D01*
X124482292Y-82893599D01*
X124366020Y-82612200D01*
X123765959Y-82011091D01*
X122981541Y-81685372D01*
X122132185Y-81684630D01*
X121347200Y-82008980D01*
X120746091Y-82609041D01*
X120420372Y-83393459D01*
X120419630Y-84242815D01*
X118795000Y-84242815D01*
X118795000Y-78798114D01*
X119501491Y-78798114D01*
X119801458Y-79236386D01*
X121008161Y-79738119D01*
X122315014Y-79739874D01*
X123523060Y-79241385D01*
X123530542Y-79236386D01*
X123830509Y-78798114D01*
X121666000Y-76633605D01*
X119501491Y-78798114D01*
X118795000Y-78798114D01*
X118795000Y-78108426D01*
X118878615Y-78311060D01*
X118883614Y-78318542D01*
X119321886Y-78618509D01*
X121486395Y-76454000D01*
X121845605Y-76454000D01*
X124010114Y-78618509D01*
X124448386Y-78318542D01*
X124658335Y-77813599D01*
X125899699Y-77813599D01*
X126163281Y-78451515D01*
X126650918Y-78940004D01*
X127288373Y-79204699D01*
X127978599Y-79205301D01*
X128616515Y-78941719D01*
X129105004Y-78454082D01*
X129369699Y-77816627D01*
X129369701Y-77813599D01*
X129709699Y-77813599D01*
X129973281Y-78451515D01*
X130460918Y-78940004D01*
X131098373Y-79204699D01*
X131788599Y-79205301D01*
X132426515Y-78941719D01*
X132915004Y-78454082D01*
X133168621Y-77843305D01*
X134004674Y-77843305D01*
X134291043Y-78536372D01*
X134820839Y-79067093D01*
X135513405Y-79354672D01*
X136263305Y-79355326D01*
X136920935Y-79083599D01*
X138599699Y-79083599D01*
X138863281Y-79721515D01*
X139350918Y-80210004D01*
X139988373Y-80474699D01*
X140678599Y-80475301D01*
X141316515Y-80211719D01*
X141805004Y-79724082D01*
X142069699Y-79086627D01*
X142070301Y-78396401D01*
X141806719Y-77758485D01*
X141319082Y-77269996D01*
X141049635Y-77158112D01*
X141269359Y-77067099D01*
X141380263Y-76789868D01*
X140335000Y-75744605D01*
X139289737Y-76789868D01*
X139400641Y-77067099D01*
X139630717Y-77153731D01*
X139353485Y-77268281D01*
X138864996Y-77755918D01*
X138600301Y-78393373D01*
X138599699Y-79083599D01*
X136920935Y-79083599D01*
X136956372Y-79068957D01*
X137487093Y-78539161D01*
X137774672Y-77846595D01*
X137775326Y-77096695D01*
X137488957Y-76403628D01*
X136959161Y-75872907D01*
X136266595Y-75585328D01*
X135516695Y-75584674D01*
X134823628Y-75871043D01*
X134292907Y-76400839D01*
X134005328Y-77093405D01*
X134004674Y-77843305D01*
X133168621Y-77843305D01*
X133179699Y-77816627D01*
X133180301Y-77126401D01*
X132916719Y-76488485D01*
X132429082Y-75999996D01*
X131791627Y-75735301D01*
X131101401Y-75734699D01*
X130463485Y-75998281D01*
X129974996Y-76485918D01*
X129710301Y-77123373D01*
X129709699Y-77813599D01*
X129369701Y-77813599D01*
X129370301Y-77126401D01*
X129106719Y-76488485D01*
X128619082Y-75999996D01*
X127981627Y-75735301D01*
X127291401Y-75734699D01*
X126653485Y-75998281D01*
X126164996Y-76485918D01*
X125900301Y-77123373D01*
X125899699Y-77813599D01*
X124658335Y-77813599D01*
X124950119Y-77111839D01*
X124951874Y-75804986D01*
X124733838Y-75276593D01*
X138589677Y-75276593D01*
X138612164Y-75966453D01*
X138832901Y-76499359D01*
X139110132Y-76610263D01*
X140155395Y-75565000D01*
X140514605Y-75565000D01*
X141559868Y-76610263D01*
X141837099Y-76499359D01*
X142059541Y-75908599D01*
X146219699Y-75908599D01*
X146483281Y-76546515D01*
X146970918Y-77035004D01*
X147253788Y-77152462D01*
X146973485Y-77268281D01*
X146484996Y-77755918D01*
X146220301Y-78393373D01*
X146219699Y-79083599D01*
X146483281Y-79721515D01*
X146970918Y-80210004D01*
X147608373Y-80474699D01*
X148298599Y-80475301D01*
X148936515Y-80211719D01*
X149425004Y-79724082D01*
X149689699Y-79086627D01*
X149689950Y-78798114D01*
X163189491Y-78798114D01*
X163489458Y-79236386D01*
X164696161Y-79738119D01*
X166003014Y-79739874D01*
X167211060Y-79241385D01*
X167218542Y-79236386D01*
X167518509Y-78798114D01*
X165354000Y-76633605D01*
X163189491Y-78798114D01*
X149689950Y-78798114D01*
X149690301Y-78396401D01*
X149426719Y-77758485D01*
X148939082Y-77269996D01*
X148656212Y-77152538D01*
X148776069Y-77103014D01*
X162068126Y-77103014D01*
X162566615Y-78311060D01*
X162571614Y-78318542D01*
X163009886Y-78618509D01*
X165174395Y-76454000D01*
X163009886Y-74289491D01*
X162571614Y-74589458D01*
X162069881Y-75796161D01*
X162068126Y-77103014D01*
X148776069Y-77103014D01*
X148936515Y-77036719D01*
X149425004Y-76549082D01*
X149689699Y-75911627D01*
X149690301Y-75221401D01*
X149426719Y-74583485D01*
X148939082Y-74094996D01*
X148301627Y-73830301D01*
X147611401Y-73829699D01*
X146973485Y-74093281D01*
X146484996Y-74580918D01*
X146220301Y-75218373D01*
X146219699Y-75908599D01*
X142059541Y-75908599D01*
X142080323Y-75853407D01*
X142057836Y-75163547D01*
X141837099Y-74630641D01*
X141559868Y-74519737D01*
X140514605Y-75565000D01*
X140155395Y-75565000D01*
X139110132Y-74519737D01*
X138832901Y-74630641D01*
X138589677Y-75276593D01*
X124733838Y-75276593D01*
X124453385Y-74596940D01*
X124448386Y-74589458D01*
X124084104Y-74340132D01*
X139289737Y-74340132D01*
X140335000Y-75385395D01*
X141380263Y-74340132D01*
X141269359Y-74062901D01*
X140623407Y-73819677D01*
X139933547Y-73842164D01*
X139400641Y-74062901D01*
X139289737Y-74340132D01*
X124084104Y-74340132D01*
X124010114Y-74289491D01*
X121845605Y-76454000D01*
X121486395Y-76454000D01*
X119321886Y-74289491D01*
X118883614Y-74589458D01*
X118795000Y-74802581D01*
X118795000Y-73710000D01*
X119775185Y-73710000D01*
X119501491Y-74109886D01*
G36*
X134736285Y-93916680D02*
X135890000Y-95070395D01*
X137043715Y-93916680D01*
X137012074Y-93845000D01*
X138594868Y-93845000D01*
X138600112Y-93850244D01*
X138599699Y-94323599D01*
X138863281Y-94961515D01*
X139350918Y-95450004D01*
X139633788Y-95567462D01*
X139353485Y-95683281D01*
X138864996Y-96170918D01*
X138600301Y-96808373D01*
X138599699Y-97498599D01*
X138775885Y-97925000D01*
X132580000Y-97925000D01*
X132580000Y-96583320D01*
X134736285Y-96583320D01*
X134865533Y-96876123D01*
X135565806Y-97144388D01*
X136315435Y-97124250D01*
X136914467Y-96876123D01*
X137043715Y-96583320D01*
X135890000Y-95429605D01*
X134736285Y-96583320D01*
X132580000Y-96583320D01*
X132580000Y-96568502D01*
X132915004Y-96234082D01*
X133179699Y-95596627D01*
X133180284Y-94925806D01*
X133995612Y-94925806D01*
X134015750Y-95675435D01*
X134263877Y-96274467D01*
X134556680Y-96403715D01*
X135710395Y-95250000D01*
X136069605Y-95250000D01*
X137223320Y-96403715D01*
X137516123Y-96274467D01*
X137784388Y-95574194D01*
X137764250Y-94824565D01*
X137516123Y-94225533D01*
X137223320Y-94096285D01*
X136069605Y-95250000D01*
X135710395Y-95250000D01*
X134556680Y-94096285D01*
X134263877Y-94225533D01*
X133995612Y-94925806D01*
X133180284Y-94925806D01*
X133180301Y-94906401D01*
X132916719Y-94268485D01*
X132493973Y-93845000D01*
X134767926Y-93845000D01*
X134736285Y-93916680D01*
X134736285Y-93916680D01*
G37*
X134736285Y-93916680D02*
X135890000Y-95070395D01*
X137043715Y-93916680D01*
X137012074Y-93845000D01*
X138594868Y-93845000D01*
X138600112Y-93850244D01*
X138599699Y-94323599D01*
X138863281Y-94961515D01*
X139350918Y-95450004D01*
X139633788Y-95567462D01*
X139353485Y-95683281D01*
X138864996Y-96170918D01*
X138600301Y-96808373D01*
X138599699Y-97498599D01*
X138775885Y-97925000D01*
X132580000Y-97925000D01*
X132580000Y-96583320D01*
X134736285Y-96583320D01*
X134865533Y-96876123D01*
X135565806Y-97144388D01*
X136315435Y-97124250D01*
X136914467Y-96876123D01*
X137043715Y-96583320D01*
X135890000Y-95429605D01*
X134736285Y-96583320D01*
X132580000Y-96583320D01*
X132580000Y-96568502D01*
X132915004Y-96234082D01*
X133179699Y-95596627D01*
X133180284Y-94925806D01*
X133995612Y-94925806D01*
X134015750Y-95675435D01*
X134263877Y-96274467D01*
X134556680Y-96403715D01*
X135710395Y-95250000D01*
X136069605Y-95250000D01*
X137223320Y-96403715D01*
X137516123Y-96274467D01*
X137784388Y-95574194D01*
X137764250Y-94824565D01*
X137516123Y-94225533D01*
X137223320Y-94096285D01*
X136069605Y-95250000D01*
X135710395Y-95250000D01*
X134556680Y-94096285D01*
X134263877Y-94225533D01*
X133995612Y-94925806D01*
X133180284Y-94925806D01*
X133180301Y-94906401D01*
X132916719Y-94268485D01*
X132493973Y-93845000D01*
X134767926Y-93845000D01*
X134736285Y-93916680D01*
M02*
