M48
;DRILL file {KiCad 4.0.7} date 05/24/18 12:52:22
;FORMAT={-:-/ absolute / inch / decimal}
FMAT,2
INCH,TZ
T1C0.032
T2C0.039
T3C0.040
T4C0.051
T5C0.126
%
G90
G05
M72
T1
X5.025Y-3.05
X5.025Y-3.75
X5.1Y-3.35
X5.1Y-3.45
X5.175Y-3.05
X5.175Y-3.75
X5.3Y-3.25
X5.3Y-3.55
X5.525Y-2.975
X5.525Y-3.1
X5.525Y-3.25
X5.525Y-3.55
X5.525Y-3.7
X5.525Y-3.825
X5.625Y-3.25
X5.625Y-3.55
X5.725Y-3.25
X5.725Y-3.55
X5.825Y-2.975
X5.825Y-3.1
X5.825Y-3.25
X5.825Y-3.55
X5.825Y-3.7
X5.825Y-3.825
X6.075Y-3.775
X6.275Y-3.775
T2
X4.825Y-3.3
X4.825Y-3.5
T3
X5.35Y-3.05
X5.35Y-3.75
T4
X6.0626Y-3.2397
X6.1886Y-3.6058
X6.2358Y-3.4995
X6.35Y-3.22
X6.5035Y-3.4011
T5
X4.79Y-3.01
X4.79Y-3.79
X6.51Y-3.01
X6.51Y-3.79
T0
M30
